<svg xmlns="http://www.w3.org/2000/svg" xmlns:xlink="http://www.w3.org/1999/xlink" width="224" zoomAndPan="magnify" viewBox="0 0 168 83.249999" height="111" preserveAspectRatio="xMidYMid meet" version="1.0"><defs><g/></defs><g fill="#ffffff" fill-opacity="1"><g transform="translate(0.750001, 57.468212)"><g><path d="M 24.421875 -5.59375 L 12.25 -5.59375 L 10.40625 0 L 0.390625 0 L 12.890625 -34.296875 L 23.875 -34.296875 L 36.328125 0 L 26.265625 0 Z M 22.03125 -12.890625 L 18.34375 -23.984375 L 14.6875 -12.890625 Z M 22.03125 -12.890625 "/></g></g></g><g fill="#ffffff" fill-opacity="1"><g transform="translate(37.476713, 57.468212)"><g><path d="M 1.171875 -13.671875 C 1.171875 -16.492188 1.679688 -18.957031 2.703125 -21.0625 C 3.722656 -23.164062 5.125 -24.785156 6.90625 -25.921875 C 8.6875 -27.054688 10.664062 -27.625 12.84375 -27.625 C 14.59375 -27.625 16.15625 -27.257812 17.53125 -26.53125 C 18.914062 -25.800781 19.992188 -24.804688 20.765625 -23.546875 L 20.765625 -36 L 30.359375 -36 L 30.359375 0 L 20.765625 0 L 20.765625 -3.796875 C 20.023438 -2.523438 18.972656 -1.515625 17.609375 -0.765625 C 16.242188 -0.0234375 14.640625 0.34375 12.796875 0.34375 C 10.617188 0.34375 8.644531 -0.222656 6.875 -1.359375 C 5.113281 -2.492188 3.722656 -4.125 2.703125 -6.25 C 1.679688 -8.375 1.171875 -10.847656 1.171875 -13.671875 Z M 20.8125 -13.671875 C 20.8125 -15.421875 20.332031 -16.796875 19.375 -17.796875 C 18.425781 -18.804688 17.253906 -19.3125 15.859375 -19.3125 C 14.429688 -19.3125 13.242188 -18.816406 12.296875 -17.828125 C 11.359375 -16.835938 10.890625 -15.453125 10.890625 -13.671875 C 10.890625 -11.921875 11.359375 -10.535156 12.296875 -9.515625 C 13.242188 -8.492188 14.429688 -7.984375 15.859375 -7.984375 C 17.253906 -7.984375 18.425781 -8.484375 19.375 -9.484375 C 20.332031 -10.492188 20.8125 -11.890625 20.8125 -13.671875 Z M 20.8125 -13.671875 "/></g></g></g><g fill="#ffffff" fill-opacity="1"><g transform="translate(70.555086, 57.468212)"><g><path d="M 20.578125 -27.53125 C 23.722656 -27.53125 26.21875 -26.484375 28.0625 -24.390625 C 29.914062 -22.296875 30.84375 -19.46875 30.84375 -15.90625 L 30.84375 0 L 21.296875 0 L 21.296875 -14.640625 C 21.296875 -16.191406 20.890625 -17.414062 20.078125 -18.3125 C 19.273438 -19.207031 18.191406 -19.65625 16.828125 -19.65625 C 15.398438 -19.65625 14.28125 -19.207031 13.46875 -18.3125 C 12.65625 -17.414062 12.25 -16.191406 12.25 -14.640625 L 12.25 0 L 2.71875 0 L 2.71875 -27.28125 L 12.25 -27.28125 L 12.25 -23.390625 C 13.09375 -24.628906 14.226562 -25.628906 15.65625 -26.390625 C 17.082031 -27.148438 18.722656 -27.53125 20.578125 -27.53125 Z M 20.578125 -27.53125 "/></g></g></g><g fill="#ffffff" fill-opacity="1"><g transform="translate(103.925326, 57.468212)"><g><path d="M 28.796875 -13.953125 C 28.796875 -13.210938 28.75 -12.46875 28.65625 -11.71875 L 10.609375 -11.71875 C 10.703125 -10.226562 11.113281 -9.117188 11.84375 -8.390625 C 12.570312 -7.660156 13.503906 -7.296875 14.640625 -7.296875 C 16.234375 -7.296875 17.367188 -8.007812 18.046875 -9.4375 L 28.21875 -9.4375 C 27.789062 -7.550781 26.96875 -5.867188 25.75 -4.390625 C 24.539062 -2.921875 23.007812 -1.765625 21.15625 -0.921875 C 19.3125 -0.078125 17.269531 0.34375 15.03125 0.34375 C 12.34375 0.34375 9.953125 -0.222656 7.859375 -1.359375 C 5.765625 -2.492188 4.125 -4.113281 2.9375 -6.21875 C 1.757812 -8.332031 1.171875 -10.816406 1.171875 -13.671875 C 1.171875 -16.523438 1.753906 -18.992188 2.921875 -21.078125 C 4.085938 -23.171875 5.710938 -24.785156 7.796875 -25.921875 C 9.890625 -27.054688 12.300781 -27.625 15.03125 -27.625 C 17.71875 -27.625 20.097656 -27.070312 22.171875 -25.96875 C 24.253906 -24.875 25.878906 -23.296875 27.046875 -21.234375 C 28.210938 -19.171875 28.796875 -16.742188 28.796875 -13.953125 Z M 19.0625 -16.34375 C 19.0625 -17.507812 18.671875 -18.425781 17.890625 -19.09375 C 17.117188 -19.757812 16.148438 -20.09375 14.984375 -20.09375 C 13.816406 -20.09375 12.859375 -19.773438 12.109375 -19.140625 C 11.367188 -18.503906 10.882812 -17.570312 10.65625 -16.34375 Z M 19.0625 -16.34375 "/></g></g></g><g fill="#ffffff" fill-opacity="1"><g transform="translate(133.890442, 57.468212)"><g><path d="M 19.75 0 L 14.828125 -6.859375 L 10.9375 0 L 0.484375 0 L 9.578125 -14.15625 L 0.09375 -27.28125 L 10.796875 -27.28125 L 15.71875 -20.421875 L 19.65625 -27.28125 L 30.109375 -27.28125 L 20.8125 -13.375 L 30.453125 0 Z M 19.75 0 "/></g></g></g><g fill="#ffffff" fill-opacity="1"><g transform="translate(164.454985, 57.468212)"><g/></g></g></svg>