<svg xmlns="http://www.w3.org/2000/svg" xmlns:xlink="http://www.w3.org/1999/xlink" width="178" zoomAndPan="magnify" viewBox="0 0 133.5 36.000001" height="48" preserveAspectRatio="xMidYMid meet" version="1.0"><defs><filter x="0%" y="0%" width="100%" height="100%" id="6e5391ae4d"><feColorMatrix values="0 0 0 0 1 0 0 0 0 1 0 0 0 0 1 0 0 0 1 0" color-interpolation-filters="sRGB"/></filter><g/><mask id="f03a1a29ea"><g filter="url(#6e5391ae4d)"><rect x="-13.35" width="160.2" fill="#000000" y="-3.6" height="43.200001" fill-opacity="0.73"/></g></mask><clipPath id="3687f96855"><path d="M 7 0.75 L 20 0.75 L 20 18 L 7 18 Z M 7 0.75 " clip-rule="nonzero"/></clipPath><clipPath id="8d31c77770"><path d="M 0.0273438 7 L 15 7 L 15 24 L 0.0273438 24 Z M 0.0273438 7 " clip-rule="nonzero"/></clipPath><clipPath id="f9aacf7e78"><path d="M 12 15 L 24 15 L 24 32.128906 L 12 32.128906 Z M 12 15 " clip-rule="nonzero"/></clipPath><clipPath id="2f24c7c6c3"><path d="M 16 10 L 31.550781 10 L 31.550781 26 L 16 26 Z M 16 10 " clip-rule="nonzero"/></clipPath><clipPath id="936b6151a2"><rect x="0" width="32" y="0" height="33"/></clipPath></defs><g mask="url(#f03a1a29ea)"><g transform="matrix(1, 0, 0, 1, 2, 1)"><g clip-path="url(#936b6151a2)"><g clip-path="url(#3687f96855)"><path fill="#ffffff" d="M 11.804688 8.484375 L 19.25 4.183594 C 19.257812 4.183594 19.257812 4.179688 19.261719 4.179688 C 18.96875 3.59375 18.582031 3.0625 18.121094 2.601562 C 17.023438 1.503906 15.507812 0.824219 13.828125 0.824219 C 10.476562 0.824219 7.761719 3.539062 7.757812 6.886719 C 7.757812 6.890625 7.757812 6.890625 7.757812 6.898438 L 7.757812 15.496094 L 11.789062 17.835938 Z M 11.804688 8.484375 " fill-opacity="1" fill-rule="nonzero"/></g><g clip-path="url(#8d31c77770)"><path fill="#ffffff" d="M 3.480469 18.710938 L 10.925781 23.011719 L 14.96875 20.691406 L 6.878906 16.003906 L 6.878906 7.402344 C 6.878906 7.398438 6.875 7.394531 6.878906 7.390625 C 6.222656 7.351562 5.570312 7.417969 4.941406 7.589844 C 3.441406 7.988281 2.097656 8.964844 1.257812 10.421875 C -0.417969 13.320312 0.574219 17.03125 3.46875 18.707031 C 3.476562 18.710938 3.476562 18.710938 3.480469 18.710938 Z M 3.480469 18.710938 " fill-opacity="1" fill-rule="nonzero"/></g><path fill="#ffffff" d="M 19.03125 19.363281 L 10.925781 24.027344 L 3.480469 19.726562 C 3.476562 19.722656 3.472656 19.722656 3.46875 19.71875 C 3.105469 20.269531 2.839844 20.867188 2.671875 21.496094 C 2.269531 22.996094 2.441406 24.648438 3.28125 26.105469 C 4.957031 29.003906 8.664062 30 11.566406 28.332031 C 11.570312 28.328125 11.570312 28.328125 11.574219 28.324219 L 19.023438 24.023438 Z M 19.03125 19.363281 " fill-opacity="1" fill-rule="nonzero"/><g clip-path="url(#f9aacf7e78)"><path fill="#ffffff" d="M 19.898438 24.53125 L 12.453125 28.832031 C 12.445312 28.832031 12.445312 28.839844 12.441406 28.839844 C 12.734375 29.425781 13.121094 29.957031 13.578125 30.417969 C 14.675781 31.515625 16.195312 32.191406 17.875 32.191406 C 21.222656 32.191406 23.941406 29.480469 23.945312 26.132812 C 23.945312 26.125 23.945312 26.125 23.945312 26.121094 L 23.945312 17.519531 L 19.914062 15.183594 Z M 19.898438 24.53125 " fill-opacity="1" fill-rule="nonzero"/></g><g clip-path="url(#2f24c7c6c3)"><path fill="#ffffff" d="M 28.230469 14.308594 C 28.226562 14.308594 28.226562 14.308594 28.222656 14.304688 L 20.773438 10.003906 L 16.734375 12.328125 L 24.824219 17.015625 L 24.824219 25.617188 C 24.820312 25.621094 24.824219 25.621094 24.824219 25.625 C 25.480469 25.664062 26.128906 25.597656 26.757812 25.429688 C 28.257812 25.027344 29.605469 24.050781 30.445312 22.597656 C 32.121094 19.699219 31.128906 15.988281 28.230469 14.308594 Z M 28.230469 14.308594 " fill-opacity="1" fill-rule="nonzero"/></g><path fill="#ffffff" d="M 28.222656 13.292969 C 28.226562 13.296875 28.230469 13.292969 28.234375 13.296875 C 28.59375 12.75 28.863281 12.152344 29.03125 11.523438 C 29.433594 10.023438 29.261719 8.371094 28.421875 6.914062 C 26.746094 4.015625 23.039062 3.015625 20.136719 4.6875 C 20.132812 4.691406 20.132812 4.691406 20.128906 4.691406 L 12.679688 8.992188 L 12.671875 13.652344 L 20.777344 8.992188 Z M 28.222656 13.292969 " fill-opacity="1" fill-rule="nonzero"/></g></g></g><g fill="#ffffff" fill-opacity="1"><g transform="translate(42.799659, 25.905407)"><g><path d="M 16.3125 -8.609375 C 16.3125 -6.804688 16.003906 -5.234375 15.390625 -3.890625 C 14.785156 -2.546875 13.925781 -1.519531 12.8125 -0.8125 C 11.695312 -0.101562 10.398438 0.25 8.921875 0.25 C 7.472656 0.25 6.1875 -0.101562 5.0625 -0.8125 C 3.9375 -1.53125 3.0625 -2.546875 2.4375 -3.859375 C 1.820312 -5.179688 1.507812 -6.710938 1.5 -8.453125 L 1.5 -9.78125 C 1.5 -11.550781 1.804688 -13.113281 2.421875 -14.46875 C 3.035156 -15.820312 3.90625 -16.859375 5.03125 -17.578125 C 6.15625 -18.304688 7.441406 -18.671875 8.890625 -18.671875 C 10.367188 -18.671875 11.671875 -18.3125 12.796875 -17.59375 C 13.921875 -16.882812 14.785156 -15.851562 15.390625 -14.5 C 16.003906 -13.144531 16.3125 -11.570312 16.3125 -9.78125 Z M 13.890625 -9.796875 C 13.890625 -11.984375 13.453125 -13.660156 12.578125 -14.828125 C 11.703125 -15.992188 10.472656 -16.578125 8.890625 -16.578125 C 7.359375 -16.578125 6.148438 -15.992188 5.265625 -14.828125 C 4.390625 -13.660156 3.9375 -12.039062 3.90625 -9.96875 L 3.90625 -8.609375 C 3.90625 -6.492188 4.347656 -4.832031 5.234375 -3.625 C 6.128906 -2.414062 7.359375 -1.8125 8.921875 -1.8125 C 10.484375 -1.8125 11.691406 -2.378906 12.546875 -3.515625 C 13.410156 -4.660156 13.859375 -6.300781 13.890625 -8.4375 Z M 13.890625 -9.796875 "/></g></g><g transform="translate(60.609625, 25.905407)"><g><path d="M 13.328125 -6.6875 C 13.328125 -4.601562 12.847656 -2.925781 11.890625 -1.65625 C 10.941406 -0.382812 9.65625 0.25 8.03125 0.25 C 6.375 0.25 5.066406 -0.273438 4.109375 -1.328125 L 4.109375 5.265625 L 1.765625 5.265625 L 1.765625 -13.6875 L 3.90625 -13.6875 L 4.015625 -12.171875 C 4.972656 -13.347656 6.300781 -13.9375 8 -13.9375 C 9.644531 -13.9375 10.941406 -13.316406 11.890625 -12.078125 C 12.847656 -10.835938 13.328125 -9.113281 13.328125 -6.90625 Z M 11 -6.953125 C 11 -8.492188 10.664062 -9.710938 10 -10.609375 C 9.34375 -11.503906 8.441406 -11.953125 7.296875 -11.953125 C 5.878906 -11.953125 4.816406 -11.320312 4.109375 -10.0625 L 4.109375 -3.53125 C 4.804688 -2.28125 5.878906 -1.65625 7.328125 -1.65625 C 8.441406 -1.65625 9.332031 -2.097656 10 -2.984375 C 10.664062 -3.878906 11 -5.203125 11 -6.953125 Z M 11 -6.953125 "/></g></g><g transform="translate(75.143468, 25.905407)"><g><path d="M 7.453125 0.25 C 5.597656 0.25 4.085938 -0.359375 2.921875 -1.578125 C 1.753906 -2.796875 1.171875 -4.425781 1.171875 -6.46875 L 1.171875 -6.890625 C 1.171875 -8.253906 1.429688 -9.46875 1.953125 -10.53125 C 2.472656 -11.59375 3.195312 -12.425781 4.125 -13.03125 C 5.0625 -13.632812 6.070312 -13.9375 7.15625 -13.9375 C 8.9375 -13.9375 10.316406 -13.347656 11.296875 -12.171875 C 12.285156 -11.003906 12.78125 -9.328125 12.78125 -7.140625 L 12.78125 -6.171875 L 3.515625 -6.171875 C 3.546875 -4.828125 3.9375 -3.738281 4.6875 -2.90625 C 5.445312 -2.070312 6.410156 -1.65625 7.578125 -1.65625 C 8.398438 -1.65625 9.097656 -1.820312 9.671875 -2.15625 C 10.242188 -2.5 10.75 -2.945312 11.1875 -3.5 L 12.609375 -2.390625 C 11.460938 -0.628906 9.742188 0.25 7.453125 0.25 Z M 7.15625 -12.015625 C 6.21875 -12.015625 5.425781 -11.671875 4.78125 -10.984375 C 4.132812 -10.296875 3.738281 -9.332031 3.59375 -8.09375 L 10.453125 -8.09375 L 10.453125 -8.265625 C 10.378906 -9.460938 10.054688 -10.382812 9.484375 -11.03125 C 8.910156 -11.6875 8.132812 -12.015625 7.15625 -12.015625 Z M 7.15625 -12.015625 "/></g></g><g transform="translate(88.867767, 25.905407)"><g><path d="M 3.984375 -13.6875 L 4.0625 -11.96875 C 5.101562 -13.28125 6.46875 -13.9375 8.15625 -13.9375 C 11.050781 -13.9375 12.507812 -12.304688 12.53125 -9.046875 L 12.53125 0 L 10.203125 0 L 10.203125 -9.0625 C 10.191406 -10.039062 9.960938 -10.765625 9.515625 -11.234375 C 9.078125 -11.710938 8.390625 -11.953125 7.453125 -11.953125 C 6.691406 -11.953125 6.023438 -11.75 5.453125 -11.34375 C 4.878906 -10.9375 4.429688 -10.40625 4.109375 -9.75 L 4.109375 0 L 1.765625 0 L 1.765625 -13.6875 Z M 3.984375 -13.6875 "/></g></g><g transform="translate(103.161277, 25.905407)"><g><path d="M 12.3125 -4.8125 L 4.59375 -4.8125 L 2.859375 0 L 0.359375 0 L 7.390625 -18.421875 L 9.515625 -18.421875 L 16.5625 0 L 14.0625 0 Z M 5.328125 -6.8125 L 11.59375 -6.8125 L 8.453125 -15.421875 Z M 5.328125 -6.8125 "/></g></g><g transform="translate(120.060506, 25.905407)"><g><path d="M 4.75 0 L 2.3125 0 L 2.3125 -18.421875 L 4.75 -18.421875 Z M 4.75 0 "/></g></g></g></svg>