<svg xmlns="http://www.w3.org/2000/svg" xmlns:xlink="http://www.w3.org/1999/xlink" width="178" zoomAndPan="magnify" viewBox="0 0 133.5 36.000001" height="48" preserveAspectRatio="xMidYMid meet" version="1.0"><defs><g/><clipPath id="1a28a46f4d"><path d="M 9 1.75 L 22 1.75 L 22 19 L 9 19 Z M 9 1.75 " clip-rule="nonzero"/></clipPath><clipPath id="903433d19b"><path d="M 14 16 L 27 16 L 27 33.128906 L 14 33.128906 Z M 14 16 " clip-rule="nonzero"/></clipPath></defs><g clip-path="url(#1a28a46f4d)"><path fill="#000000" d="M 13.917969 9.453125 L 21.4375 5.171875 C 21.441406 5.171875 21.441406 5.164062 21.449219 5.164062 C 21.152344 4.582031 20.761719 4.050781 20.296875 3.59375 C 19.191406 2.5 17.65625 1.824219 15.960938 1.824219 C 12.582031 1.824219 9.839844 4.523438 9.835938 7.859375 C 9.835938 7.863281 9.835938 7.863281 9.835938 7.871094 L 9.835938 16.433594 L 13.90625 18.761719 Z M 13.917969 9.453125 " fill-opacity="1" fill-rule="nonzero"/></g><path fill="#000000" d="M 5.515625 19.632812 L 13.035156 23.917969 L 17.113281 21.601562 L 8.949219 16.9375 L 8.949219 8.375 C 8.949219 8.371094 8.945312 8.367188 8.949219 8.363281 C 8.285156 8.324219 7.628906 8.390625 6.992188 8.558594 C 5.480469 8.957031 4.121094 9.929688 3.273438 11.378906 C 1.582031 14.265625 2.582031 17.957031 5.507812 19.628906 C 5.511719 19.632812 5.511719 19.632812 5.515625 19.632812 Z M 5.515625 19.632812 " fill-opacity="1" fill-rule="nonzero"/><path fill="#000000" d="M 21.214844 20.285156 L 13.035156 24.925781 L 5.515625 20.644531 C 5.511719 20.640625 5.507812 20.640625 5.507812 20.636719 C 5.140625 21.183594 4.871094 21.78125 4.699219 22.40625 C 4.296875 23.898438 4.46875 25.542969 5.316406 26.992188 C 7.007812 29.882812 10.75 30.875 13.679688 29.210938 C 13.683594 29.207031 13.683594 29.207031 13.6875 29.207031 L 21.207031 24.925781 Z M 21.214844 20.285156 " fill-opacity="1" fill-rule="nonzero"/><g clip-path="url(#903433d19b)"><path fill="#000000" d="M 22.089844 25.429688 L 14.574219 29.710938 C 14.566406 29.710938 14.566406 29.714844 14.5625 29.714844 C 14.859375 30.300781 15.246094 30.828125 15.710938 31.289062 C 16.820312 32.378906 18.351562 33.054688 20.046875 33.054688 C 23.429688 33.054688 26.171875 30.355469 26.175781 27.019531 C 26.175781 27.015625 26.175781 27.015625 26.175781 27.011719 L 26.175781 18.449219 L 22.105469 16.121094 Z M 22.089844 25.429688 " fill-opacity="1" fill-rule="nonzero"/></g><path fill="#000000" d="M 30.503906 15.25 C 30.5 15.25 30.5 15.25 30.496094 15.246094 L 22.976562 10.964844 L 18.898438 13.277344 L 27.0625 17.945312 L 27.0625 26.507812 C 27.058594 26.511719 27.066406 26.515625 27.0625 26.519531 C 27.722656 26.558594 28.382812 26.492188 29.015625 26.324219 C 30.53125 25.921875 31.890625 24.953125 32.738281 23.503906 C 34.429688 20.617188 33.429688 16.921875 30.503906 15.25 Z M 30.503906 15.25 " fill-opacity="1" fill-rule="nonzero"/><path fill="#000000" d="M 30.496094 14.238281 C 30.496094 14.242188 30.503906 14.238281 30.503906 14.242188 C 30.871094 13.699219 31.140625 13.101562 31.308594 12.476562 C 31.714844 10.984375 31.542969 9.335938 30.695312 7.886719 C 29.003906 5 25.261719 4.007812 22.332031 5.671875 C 22.328125 5.671875 22.328125 5.671875 22.324219 5.675781 L 14.804688 9.957031 L 14.796875 14.597656 L 22.976562 9.957031 Z M 30.496094 14.238281 " fill-opacity="1" fill-rule="nonzero"/><g fill="#000000" fill-opacity="1"><g transform="translate(44.252848, 25.175677)"><g><path d="M 15.703125 -8.296875 C 15.703125 -6.554688 15.40625 -5.035156 14.8125 -3.734375 C 14.226562 -2.441406 13.398438 -1.453125 12.328125 -0.765625 C 11.265625 -0.0859375 10.015625 0.25 8.578125 0.25 C 7.179688 0.25 5.941406 -0.09375 4.859375 -0.78125 C 3.785156 -1.46875 2.953125 -2.445312 2.359375 -3.71875 C 1.765625 -4.988281 1.457031 -6.460938 1.4375 -8.140625 L 1.4375 -9.40625 C 1.4375 -11.113281 1.734375 -12.617188 2.328125 -13.921875 C 2.921875 -15.234375 3.757812 -16.234375 4.84375 -16.921875 C 5.925781 -17.617188 7.164062 -17.96875 8.5625 -17.96875 C 9.976562 -17.96875 11.226562 -17.625 12.3125 -16.9375 C 13.394531 -16.257812 14.226562 -15.265625 14.8125 -13.953125 C 15.40625 -12.648438 15.703125 -11.132812 15.703125 -9.40625 Z M 13.375 -9.4375 C 13.375 -11.539062 12.953125 -13.15625 12.109375 -14.28125 C 11.265625 -15.40625 10.082031 -15.96875 8.5625 -15.96875 C 7.082031 -15.96875 5.914062 -15.40625 5.0625 -14.28125 C 4.21875 -13.15625 3.785156 -11.59375 3.765625 -9.59375 L 3.765625 -8.296875 C 3.765625 -6.253906 4.191406 -4.648438 5.046875 -3.484375 C 5.898438 -2.316406 7.078125 -1.734375 8.578125 -1.734375 C 10.085938 -1.734375 11.253906 -2.285156 12.078125 -3.390625 C 12.910156 -4.492188 13.34375 -6.070312 13.375 -8.125 Z M 13.375 -9.4375 "/></g></g></g><g fill="#000000" fill-opacity="1"><g transform="translate(61.38867, 25.175677)"><g><path d="M 12.828125 -6.4375 C 12.828125 -4.4375 12.367188 -2.820312 11.453125 -1.59375 C 10.535156 -0.363281 9.296875 0.25 7.734375 0.25 C 6.128906 0.25 4.867188 -0.257812 3.953125 -1.28125 L 3.953125 5.0625 L 1.703125 5.0625 L 1.703125 -13.171875 L 3.765625 -13.171875 L 3.875 -11.71875 C 4.789062 -12.851562 6.066406 -13.421875 7.703125 -13.421875 C 9.273438 -13.421875 10.519531 -12.820312 11.4375 -11.625 C 12.363281 -10.4375 12.828125 -8.773438 12.828125 -6.640625 Z M 10.578125 -6.703125 C 10.578125 -8.179688 10.257812 -9.347656 9.625 -10.203125 C 9 -11.066406 8.132812 -11.5 7.03125 -11.5 C 5.664062 -11.5 4.640625 -10.894531 3.953125 -9.6875 L 3.953125 -3.390625 C 4.628906 -2.191406 5.660156 -1.59375 7.046875 -1.59375 C 8.128906 -1.59375 8.988281 -2.019531 9.625 -2.875 C 10.257812 -3.738281 10.578125 -5.015625 10.578125 -6.703125 Z M 10.578125 -6.703125 "/></g></g></g><g fill="#000000" fill-opacity="1"><g transform="translate(75.372376, 25.175677)"><g><path d="M 7.171875 0.25 C 5.390625 0.25 3.9375 -0.335938 2.8125 -1.515625 C 1.6875 -2.691406 1.125 -4.257812 1.125 -6.21875 L 1.125 -6.640625 C 1.125 -7.941406 1.375 -9.101562 1.875 -10.125 C 2.375 -11.15625 3.070312 -11.960938 3.96875 -12.546875 C 4.875 -13.128906 5.847656 -13.421875 6.890625 -13.421875 C 8.609375 -13.421875 9.941406 -12.851562 10.890625 -11.71875 C 11.835938 -10.59375 12.3125 -8.976562 12.3125 -6.875 L 12.3125 -5.9375 L 3.390625 -5.9375 C 3.421875 -4.644531 3.796875 -3.597656 4.515625 -2.796875 C 5.242188 -1.992188 6.171875 -1.59375 7.296875 -1.59375 C 8.085938 -1.59375 8.757812 -1.753906 9.3125 -2.078125 C 9.863281 -2.398438 10.347656 -2.832031 10.765625 -3.375 L 12.140625 -2.296875 C 11.035156 -0.597656 9.378906 0.25 7.171875 0.25 Z M 6.890625 -11.5625 C 5.984375 -11.5625 5.21875 -11.226562 4.59375 -10.5625 C 3.976562 -9.90625 3.597656 -8.984375 3.453125 -7.796875 L 10.0625 -7.796875 L 10.0625 -7.96875 C 9.988281 -9.113281 9.675781 -10 9.125 -10.625 C 8.570312 -11.25 7.828125 -11.5625 6.890625 -11.5625 Z M 6.890625 -11.5625 "/></g></g></g><g fill="#000000" fill-opacity="1"><g transform="translate(88.577181, 25.175677)"><g><path d="M 3.828125 -13.171875 L 3.90625 -11.515625 C 4.914062 -12.785156 6.234375 -13.421875 7.859375 -13.421875 C 10.640625 -13.421875 12.039062 -11.847656 12.0625 -8.703125 L 12.0625 0 L 9.8125 0 L 9.8125 -8.71875 C 9.800781 -9.664062 9.582031 -10.363281 9.15625 -10.8125 C 8.738281 -11.269531 8.078125 -11.5 7.171875 -11.5 C 6.441406 -11.5 5.800781 -11.304688 5.25 -10.921875 C 4.695312 -10.535156 4.265625 -10.023438 3.953125 -9.390625 L 3.953125 0 L 1.703125 0 L 1.703125 -13.171875 Z M 3.828125 -13.171875 "/></g></g></g><g fill="#000000" fill-opacity="1"><g transform="translate(102.329651, 25.175677)"><g><path d="M 11.84375 -4.625 L 4.421875 -4.625 L 2.75 0 L 0.34375 0 L 7.109375 -17.734375 L 9.15625 -17.734375 L 15.9375 0 L 13.546875 0 Z M 5.125 -6.546875 L 11.15625 -6.546875 L 8.140625 -14.84375 Z M 5.125 -6.546875 "/></g></g></g><g fill="#000000" fill-opacity="1"><g transform="translate(118.589209, 25.175677)"><g><path d="M 4.5625 0 L 2.234375 0 L 2.234375 -17.734375 L 4.5625 -17.734375 Z M 4.5625 0 "/></g></g></g></svg>