<svg xmlns="http://www.w3.org/2000/svg" xmlns:xlink="http://www.w3.org/1999/xlink" width="178" zoomAndPan="magnify" viewBox="0 0 133.5 36.000001" height="48" preserveAspectRatio="xMidYMid meet" version="1.0"><defs><g/><clipPath id="f6e9dba2d4"><path d="M 5.0625 3.503906 L 32.792969 3.503906 L 32.792969 31.234375 L 5.0625 31.234375 Z M 5.0625 3.503906 " clip-rule="nonzero"/></clipPath><clipPath id="a75abf64a6"><path d="M 18 14 L 32.792969 14 L 32.792969 31.234375 L 18 31.234375 Z M 18 14 " clip-rule="nonzero"/></clipPath></defs><g clip-path="url(#f6e9dba2d4)"><path fill="#000000" d="M 16.285156 25.988281 L 16.285156 30.457031 C 16.285156 30.867188 15.898438 31.160156 15.503906 31.058594 C 9.503906 29.476562 5.0625 24 5.0625 17.511719 C 5.0625 9.785156 11.347656 3.503906 19.070312 3.503906 C 24.726562 3.503906 29.796875 6.875 31.988281 12.089844 C 32.160156 12.5 31.859375 12.949219 31.417969 12.949219 L 26.011719 12.949219 C 25.824219 12.949219 25.648438 12.867188 25.53125 12.71875 C 23.972656 10.75 21.597656 9.589844 19.070312 9.589844 C 14.355469 9.589844 10.554688 13.574219 10.859375 18.355469 C 11.058594 21.523438 13.082031 24.234375 15.902344 25.414062 C 16.132812 25.511719 16.285156 25.738281 16.285156 25.988281 " fill-opacity="1" fill-rule="evenodd"/></g><g clip-path="url(#a75abf64a6)"><path fill="#000000" d="M 33.078125 17.511719 C 33.078125 18.265625 33.015625 19.023438 32.894531 19.765625 C 32.371094 23.011719 30.703125 25.984375 28.191406 28.140625 C 25.65625 30.316406 22.417969 31.515625 19.070312 31.515625 C 19.011719 31.515625 18.953125 31.515625 18.894531 31.515625 C 18.554688 31.511719 18.28125 31.234375 18.28125 30.894531 L 18.28125 26.664062 C 18.28125 26.316406 18.566406 26.039062 18.914062 26.046875 C 22.109375 26.105469 24.96875 24.324219 26.378906 21.613281 C 26.589844 21.199219 26.289062 20.707031 25.824219 20.707031 L 18.898438 20.707031 C 18.558594 20.707031 18.28125 20.429688 18.28125 20.085938 L 18.28125 15.550781 C 18.28125 15.207031 18.558594 14.929688 18.898438 14.929688 L 32.320312 14.929688 C 32.636719 14.929688 32.902344 15.167969 32.9375 15.480469 L 32.988281 15.929688 C 33.046875 16.449219 33.078125 16.984375 33.078125 17.511719 " fill-opacity="1" fill-rule="evenodd"/></g><g fill="#000000" fill-opacity="1"><g transform="translate(36.587836, 24.645893)"><g><path d="M 11.015625 -4.296875 L 4.109375 -4.296875 L 2.5625 0 L 0.3125 0 L 6.609375 -16.484375 L 8.515625 -16.484375 L 14.828125 0 L 12.59375 0 Z M 4.765625 -6.09375 L 10.375 -6.09375 L 7.5625 -13.796875 Z M 4.765625 -6.09375 "/></g></g></g><g fill="#000000" fill-opacity="1"><g transform="translate(51.709311, 24.645893)"><g><path d="M 1.078125 -6.234375 C 1.078125 -8.109375 1.519531 -9.617188 2.40625 -10.765625 C 3.300781 -11.910156 4.46875 -12.484375 5.90625 -12.484375 C 7.34375 -12.484375 8.476562 -11.988281 9.3125 -11 L 9.3125 -17.390625 L 11.40625 -17.390625 L 11.40625 0 L 9.484375 0 L 9.390625 -1.3125 C 8.546875 -0.289062 7.378906 0.21875 5.890625 0.21875 C 4.472656 0.21875 3.316406 -0.359375 2.421875 -1.515625 C 1.523438 -2.679688 1.078125 -4.195312 1.078125 -6.0625 Z M 3.171875 -5.984375 C 3.171875 -4.597656 3.457031 -3.507812 4.03125 -2.71875 C 4.601562 -1.9375 5.394531 -1.546875 6.40625 -1.546875 C 7.738281 -1.546875 8.707031 -2.144531 9.3125 -3.34375 L 9.3125 -8.96875 C 8.6875 -10.125 7.726562 -10.703125 6.4375 -10.703125 C 5.40625 -10.703125 4.601562 -10.304688 4.03125 -9.515625 C 3.457031 -8.722656 3.171875 -7.546875 3.171875 -5.984375 Z M 3.171875 -5.984375 "/></g></g></g><g fill="#000000" fill-opacity="1"><g transform="translate(64.782144, 24.645893)"><g><path d="M 5.46875 -5.203125 L 5.78125 -3.015625 L 6.25 -4.984375 L 9.515625 -16.484375 L 11.34375 -16.484375 L 14.53125 -4.984375 L 14.984375 -2.984375 L 15.328125 -5.203125 L 17.890625 -16.484375 L 20.078125 -16.484375 L 16.078125 0 L 14.09375 0 L 10.703125 -12.015625 L 10.4375 -13.265625 L 10.171875 -12.015625 L 6.65625 0 L 4.671875 0 L 0.6875 -16.484375 L 2.859375 -16.484375 Z M 5.46875 -5.203125 "/></g></g></g><g fill="#000000" fill-opacity="1"><g transform="translate(85.347804, 24.645893)"><g><path d="M 1.03125 -6.234375 C 1.03125 -7.429688 1.265625 -8.507812 1.734375 -9.46875 C 2.210938 -10.4375 2.867188 -11.179688 3.703125 -11.703125 C 4.546875 -12.222656 5.507812 -12.484375 6.59375 -12.484375 C 8.257812 -12.484375 9.609375 -11.90625 10.640625 -10.75 C 11.671875 -9.59375 12.1875 -8.054688 12.1875 -6.140625 L 12.1875 -5.984375 C 12.1875 -4.796875 11.957031 -3.726562 11.5 -2.78125 C 11.039062 -1.832031 10.382812 -1.09375 9.53125 -0.5625 C 8.6875 -0.0390625 7.710938 0.21875 6.609375 0.21875 C 4.953125 0.21875 3.609375 -0.351562 2.578125 -1.5 C 1.546875 -2.65625 1.03125 -4.1875 1.03125 -6.09375 Z M 3.140625 -5.984375 C 3.140625 -4.628906 3.453125 -3.539062 4.078125 -2.71875 C 4.710938 -1.894531 5.554688 -1.484375 6.609375 -1.484375 C 7.671875 -1.484375 8.515625 -1.898438 9.140625 -2.734375 C 9.773438 -3.566406 10.09375 -4.734375 10.09375 -6.234375 C 10.09375 -7.578125 9.769531 -8.664062 9.125 -9.5 C 8.488281 -10.332031 7.644531 -10.75 6.59375 -10.75 C 5.550781 -10.75 4.710938 -10.335938 4.078125 -9.515625 C 3.453125 -8.691406 3.140625 -7.515625 3.140625 -5.984375 Z M 3.140625 -5.984375 "/></g></g></g><g fill="#000000" fill-opacity="1"><g transform="translate(98.567776, 24.645893)"><g><path d="M 7.5 -10.375 C 7.1875 -10.425781 6.84375 -10.453125 6.46875 -10.453125 C 5.101562 -10.453125 4.171875 -9.867188 3.671875 -8.703125 L 3.671875 0 L 1.578125 0 L 1.578125 -12.25 L 3.625 -12.25 L 3.65625 -10.828125 C 4.34375 -11.929688 5.316406 -12.484375 6.578125 -12.484375 C 6.984375 -12.484375 7.289062 -12.425781 7.5 -12.3125 Z M 7.5 -10.375 "/></g></g></g><g fill="#000000" fill-opacity="1"><g transform="translate(106.411476, 24.645893)"><g><path d="M 1.078125 -6.234375 C 1.078125 -8.109375 1.519531 -9.617188 2.40625 -10.765625 C 3.300781 -11.910156 4.46875 -12.484375 5.90625 -12.484375 C 7.34375 -12.484375 8.476562 -11.988281 9.3125 -11 L 9.3125 -17.390625 L 11.40625 -17.390625 L 11.40625 0 L 9.484375 0 L 9.390625 -1.3125 C 8.546875 -0.289062 7.378906 0.21875 5.890625 0.21875 C 4.472656 0.21875 3.316406 -0.359375 2.421875 -1.515625 C 1.523438 -2.679688 1.078125 -4.195312 1.078125 -6.0625 Z M 3.171875 -5.984375 C 3.171875 -4.597656 3.457031 -3.507812 4.03125 -2.71875 C 4.601562 -1.9375 5.394531 -1.546875 6.40625 -1.546875 C 7.738281 -1.546875 8.707031 -2.144531 9.3125 -3.34375 L 9.3125 -8.96875 C 8.6875 -10.125 7.726562 -10.703125 6.4375 -10.703125 C 5.40625 -10.703125 4.601562 -10.304688 4.03125 -9.515625 C 3.457031 -8.722656 3.171875 -7.546875 3.171875 -5.984375 Z M 3.171875 -5.984375 "/></g></g></g><g fill="#000000" fill-opacity="1"><g transform="translate(119.484309, 24.645893)"><g><path d="M 8.71875 -3.25 C 8.71875 -3.8125 8.503906 -4.25 8.078125 -4.5625 C 7.648438 -4.875 6.90625 -5.144531 5.84375 -5.375 C 4.78125 -5.601562 3.9375 -5.875 3.3125 -6.1875 C 2.695312 -6.507812 2.238281 -6.890625 1.9375 -7.328125 C 1.644531 -7.765625 1.5 -8.285156 1.5 -8.890625 C 1.5 -9.890625 1.921875 -10.738281 2.765625 -11.4375 C 3.617188 -12.132812 4.703125 -12.484375 6.015625 -12.484375 C 7.410156 -12.484375 8.539062 -12.125 9.40625 -11.40625 C 10.269531 -10.6875 10.703125 -9.769531 10.703125 -8.65625 L 8.59375 -8.65625 C 8.59375 -9.226562 8.347656 -9.71875 7.859375 -10.125 C 7.378906 -10.539062 6.765625 -10.75 6.015625 -10.75 C 5.253906 -10.75 4.660156 -10.582031 4.234375 -10.25 C 3.804688 -9.925781 3.59375 -9.492188 3.59375 -8.953125 C 3.59375 -8.453125 3.789062 -8.070312 4.1875 -7.8125 C 4.59375 -7.550781 5.316406 -7.300781 6.359375 -7.0625 C 7.398438 -6.832031 8.242188 -6.554688 8.890625 -6.234375 C 9.546875 -5.910156 10.03125 -5.519531 10.34375 -5.0625 C 10.65625 -4.601562 10.8125 -4.046875 10.8125 -3.390625 C 10.8125 -2.296875 10.375 -1.421875 9.5 -0.765625 C 8.625 -0.109375 7.488281 0.21875 6.09375 0.21875 C 5.113281 0.21875 4.242188 0.046875 3.484375 -0.296875 C 2.734375 -0.640625 2.144531 -1.125 1.71875 -1.75 C 1.289062 -2.375 1.078125 -3.046875 1.078125 -3.765625 L 3.171875 -3.765625 C 3.210938 -3.066406 3.492188 -2.507812 4.015625 -2.09375 C 4.535156 -1.6875 5.226562 -1.484375 6.09375 -1.484375 C 6.882812 -1.484375 7.519531 -1.644531 8 -1.96875 C 8.476562 -2.289062 8.71875 -2.71875 8.71875 -3.25 Z M 8.71875 -3.25 "/></g></g></g></svg>