<svg xmlns="http://www.w3.org/2000/svg" xmlns:xlink="http://www.w3.org/1999/xlink" width="178" zoomAndPan="magnify" viewBox="0 0 133.5 36.000001" height="48" preserveAspectRatio="xMidYMid meet" version="1.0"><defs><g/><clipPath id="1a17dea4d0"><path d="M 5.0625 3.503906 L 29 3.503906 L 29 31.234375 L 5.0625 31.234375 Z M 5.0625 3.503906 " clip-rule="nonzero"/></clipPath></defs><g clip-path="url(#1a17dea4d0)"><path fill="#000000" d="M 27.625 11.035156 L 23.304688 11.035156 L 23.304688 9.664062 C 23.304688 6.273438 20.503906 3.515625 17.058594 3.515625 C 13.617188 3.515625 10.8125 6.273438 10.8125 9.664062 L 10.8125 11.035156 L 6.429688 11.035156 L 5.0625 31.503906 L 28.984375 31.503906 Z M 12.382812 9.664062 C 12.382812 7.136719 14.480469 5.082031 17.058594 5.082031 C 19.640625 5.082031 21.738281 7.136719 21.738281 9.664062 L 21.738281 11.035156 L 12.382812 11.035156 Z M 11.597656 17.089844 C 11.332031 17.089844 11.078125 17.046875 10.828125 16.957031 C 10.578125 16.867188 10.355469 16.734375 10.152344 16.566406 C 9.949219 16.394531 9.78125 16.195312 9.648438 15.96875 C 9.515625 15.738281 9.425781 15.496094 9.378906 15.234375 C 9.332031 14.976562 9.332031 14.714844 9.375 14.453125 C 9.421875 14.195312 9.507812 13.949219 9.640625 13.71875 C 9.773438 13.488281 9.9375 13.289062 10.140625 13.117188 C 10.339844 12.945312 10.566406 12.816406 10.8125 12.722656 L 10.8125 15.03125 C 10.808594 15.253906 10.882812 15.441406 11.035156 15.597656 C 11.191406 15.757812 11.378906 15.835938 11.597656 15.835938 C 11.816406 15.835938 12.003906 15.757812 12.160156 15.597656 C 12.3125 15.441406 12.386719 15.253906 12.382812 15.03125 L 12.382812 12.722656 C 12.628906 12.816406 12.855469 12.945312 13.054688 13.117188 C 13.257812 13.289062 13.421875 13.488281 13.554688 13.71875 C 13.6875 13.949219 13.773438 14.191406 13.820312 14.453125 C 13.863281 14.714844 13.863281 14.976562 13.816406 15.234375 C 13.769531 15.496094 13.679688 15.738281 13.546875 15.96875 C 13.414062 16.195312 13.246094 16.394531 13.042969 16.566406 C 12.839844 16.734375 12.617188 16.867188 12.367188 16.957031 C 12.117188 17.046875 11.863281 17.089844 11.597656 17.089844 Z M 22.523438 17.089844 C 22.257812 17.089844 22 17.046875 21.753906 16.957031 C 21.503906 16.867188 21.277344 16.734375 21.074219 16.566406 C 20.871094 16.394531 20.707031 16.195312 20.574219 15.96875 C 20.441406 15.738281 20.351562 15.496094 20.304688 15.234375 C 20.257812 14.976562 20.253906 14.714844 20.300781 14.453125 C 20.34375 14.195312 20.433594 13.949219 20.566406 13.71875 C 20.695312 13.488281 20.863281 13.289062 21.0625 13.117188 C 21.265625 12.945312 21.492188 12.816406 21.738281 12.722656 L 21.738281 15.03125 C 21.738281 15.25 21.816406 15.433594 21.96875 15.585938 C 22.121094 15.738281 22.304688 15.816406 22.523438 15.816406 C 22.738281 15.816406 22.921875 15.738281 23.078125 15.585938 C 23.230469 15.433594 23.304688 15.25 23.304688 15.03125 L 23.304688 12.722656 C 23.554688 12.816406 23.777344 12.945312 23.980469 13.117188 C 24.183594 13.289062 24.347656 13.488281 24.480469 13.71875 C 24.609375 13.949219 24.699219 14.195312 24.742188 14.453125 C 24.789062 14.714844 24.789062 14.976562 24.742188 15.234375 C 24.695312 15.496094 24.605469 15.738281 24.472656 15.96875 C 24.339844 16.195312 24.171875 16.394531 23.96875 16.566406 C 23.765625 16.734375 23.539062 16.867188 23.292969 16.957031 C 23.042969 17.046875 22.785156 17.089844 22.523438 17.089844 Z M 22.523438 17.089844 " fill-opacity="1" fill-rule="nonzero"/></g><g fill="#000000" fill-opacity="1"><g transform="translate(36.818188, 27.182003)"><g><path d="M 7.5625 -8.203125 C 5.476562 -8.804688 3.960938 -9.539062 3.015625 -10.40625 C 2.066406 -11.28125 1.59375 -12.363281 1.59375 -13.65625 C 1.59375 -15.101562 2.171875 -16.300781 3.328125 -17.25 C 4.492188 -18.195312 6.003906 -18.671875 7.859375 -18.671875 C 9.117188 -18.671875 10.242188 -18.425781 11.234375 -17.9375 C 12.222656 -17.445312 12.988281 -16.769531 13.53125 -15.90625 C 14.082031 -15.050781 14.359375 -14.113281 14.359375 -13.09375 L 11.921875 -13.09375 C 11.921875 -14.207031 11.566406 -15.082031 10.859375 -15.71875 C 10.148438 -16.351562 9.148438 -16.671875 7.859375 -16.671875 C 6.660156 -16.671875 5.722656 -16.40625 5.046875 -15.875 C 4.378906 -15.351562 4.046875 -14.625 4.046875 -13.6875 C 4.046875 -12.9375 4.363281 -12.300781 5 -11.78125 C 5.632812 -11.257812 6.71875 -10.785156 8.25 -10.359375 C 9.78125 -9.929688 10.976562 -9.457031 11.84375 -8.9375 C 12.707031 -8.414062 13.347656 -7.804688 13.765625 -7.109375 C 14.179688 -6.421875 14.390625 -5.613281 14.390625 -4.6875 C 14.390625 -3.1875 13.804688 -1.988281 12.640625 -1.09375 C 11.484375 -0.195312 9.929688 0.25 7.984375 0.25 C 6.710938 0.25 5.53125 0.0078125 4.4375 -0.46875 C 3.34375 -0.957031 2.5 -1.625 1.90625 -2.46875 C 1.3125 -3.3125 1.015625 -4.269531 1.015625 -5.34375 L 3.453125 -5.34375 C 3.453125 -4.226562 3.863281 -3.347656 4.6875 -2.703125 C 5.507812 -2.054688 6.609375 -1.734375 7.984375 -1.734375 C 9.265625 -1.734375 10.242188 -1.992188 10.921875 -2.515625 C 11.609375 -3.035156 11.953125 -3.75 11.953125 -4.65625 C 11.953125 -5.5625 11.632812 -6.257812 11 -6.75 C 10.375 -7.238281 9.226562 -7.722656 7.5625 -8.203125 Z M 7.5625 -8.203125 "/></g></g><g transform="translate(52.186874, 27.182003)"><g><path d="M 4.109375 -12.03125 C 5.148438 -13.300781 6.5 -13.9375 8.15625 -13.9375 C 11.050781 -13.9375 12.507812 -12.304688 12.53125 -9.046875 L 12.53125 0 L 10.203125 0 L 10.203125 -9.0625 C 10.191406 -10.039062 9.960938 -10.765625 9.515625 -11.234375 C 9.078125 -11.710938 8.390625 -11.953125 7.453125 -11.953125 C 6.691406 -11.953125 6.023438 -11.75 5.453125 -11.34375 C 4.878906 -10.9375 4.429688 -10.40625 4.109375 -9.75 L 4.109375 0 L 1.765625 0 L 1.765625 -19.4375 L 4.109375 -19.4375 Z M 4.109375 -12.03125 "/></g></g><g transform="translate(66.455085, 27.182003)"><g><path d="M 1.15625 -6.96875 C 1.15625 -8.3125 1.414062 -9.515625 1.9375 -10.578125 C 2.46875 -11.648438 3.203125 -12.476562 4.140625 -13.0625 C 5.078125 -13.644531 6.148438 -13.9375 7.359375 -13.9375 C 9.222656 -13.9375 10.726562 -13.289062 11.875 -12 C 13.03125 -10.707031 13.609375 -8.992188 13.609375 -6.859375 L 13.609375 -6.6875 C 13.609375 -5.351562 13.351562 -4.15625 12.84375 -3.09375 C 12.332031 -2.039062 11.601562 -1.21875 10.65625 -0.625 C 9.707031 -0.0390625 8.617188 0.25 7.390625 0.25 C 5.535156 0.25 4.03125 -0.394531 2.875 -1.6875 C 1.726562 -2.976562 1.15625 -4.6875 1.15625 -6.8125 Z M 3.5 -6.6875 C 3.5 -5.175781 3.847656 -3.957031 4.546875 -3.03125 C 5.253906 -2.113281 6.203125 -1.65625 7.390625 -1.65625 C 8.578125 -1.65625 9.519531 -2.117188 10.21875 -3.046875 C 10.914062 -3.984375 11.265625 -5.289062 11.265625 -6.96875 C 11.265625 -8.46875 10.910156 -9.679688 10.203125 -10.609375 C 9.492188 -11.546875 8.546875 -12.015625 7.359375 -12.015625 C 6.203125 -12.015625 5.269531 -11.554688 4.5625 -10.640625 C 3.851562 -9.722656 3.5 -8.40625 3.5 -6.6875 Z M 3.5 -6.6875 "/></g></g><g transform="translate(81.229261, 27.182003)"><g><path d="M 13.328125 -6.6875 C 13.328125 -4.601562 12.847656 -2.925781 11.890625 -1.65625 C 10.941406 -0.382812 9.65625 0.25 8.03125 0.25 C 6.375 0.25 5.066406 -0.273438 4.109375 -1.328125 L 4.109375 5.265625 L 1.765625 5.265625 L 1.765625 -13.6875 L 3.90625 -13.6875 L 4.015625 -12.171875 C 4.972656 -13.347656 6.300781 -13.9375 8 -13.9375 C 9.644531 -13.9375 10.941406 -13.316406 11.890625 -12.078125 C 12.847656 -10.835938 13.328125 -9.113281 13.328125 -6.90625 Z M 11 -6.953125 C 11 -8.492188 10.664062 -9.710938 10 -10.609375 C 9.34375 -11.503906 8.441406 -11.953125 7.296875 -11.953125 C 5.878906 -11.953125 4.816406 -11.320312 4.109375 -10.0625 L 4.109375 -3.53125 C 4.804688 -2.28125 5.878906 -1.65625 7.328125 -1.65625 C 8.441406 -1.65625 9.332031 -2.097656 10 -2.984375 C 10.664062 -3.878906 11 -5.203125 11 -6.953125 Z M 11 -6.953125 "/></g></g><g transform="translate(95.763104, 27.182003)"><g><path d="M 4.3125 0 L 1.96875 0 L 1.96875 -13.6875 L 4.3125 -13.6875 Z M 1.78125 -17.3125 C 1.78125 -17.695312 1.894531 -18.019531 2.125 -18.28125 C 2.363281 -18.539062 2.707031 -18.671875 3.15625 -18.671875 C 3.613281 -18.671875 3.957031 -18.539062 4.1875 -18.28125 C 4.425781 -18.019531 4.546875 -17.695312 4.546875 -17.3125 C 4.546875 -16.9375 4.425781 -16.617188 4.1875 -16.359375 C 3.957031 -16.109375 3.613281 -15.984375 3.15625 -15.984375 C 2.707031 -15.984375 2.363281 -16.109375 2.125 -16.359375 C 1.894531 -16.617188 1.78125 -16.9375 1.78125 -17.3125 Z M 1.78125 -17.3125 "/></g></g><g transform="translate(102.049719, 27.182003)"><g><path d="M 2.921875 0 L 2.921875 -11.875 L 0.765625 -11.875 L 0.765625 -13.6875 L 2.921875 -13.6875 L 2.921875 -15.09375 C 2.921875 -16.5625 3.3125 -17.695312 4.09375 -18.5 C 4.882812 -19.300781 5.992188 -19.703125 7.421875 -19.703125 C 7.960938 -19.703125 8.5 -19.628906 9.03125 -19.484375 L 8.90625 -17.578125 C 8.507812 -17.660156 8.085938 -17.703125 7.640625 -17.703125 C 6.878906 -17.703125 6.289062 -17.476562 5.875 -17.03125 C 5.46875 -16.59375 5.265625 -15.957031 5.265625 -15.125 L 5.265625 -13.6875 L 8.1875 -13.6875 L 8.1875 -11.875 L 5.265625 -11.875 L 5.265625 0 Z M 2.921875 0 "/></g></g><g transform="translate(111.043246, 27.182003)"><g><path d="M 6.25 -3.421875 L 9.4375 -13.6875 L 11.9375 -13.6875 L 6.4375 2.109375 C 5.582031 4.390625 4.226562 5.53125 2.375 5.53125 L 1.9375 5.484375 L 1.0625 5.328125 L 1.0625 3.421875 L 1.6875 3.484375 C 2.488281 3.484375 3.109375 3.320312 3.546875 3 C 3.992188 2.675781 4.359375 2.085938 4.640625 1.234375 L 5.15625 -0.15625 L 0.28125 -13.6875 L 2.828125 -13.6875 Z M 6.25 -3.421875 "/></g></g></g></svg>