<svg xmlns="http://www.w3.org/2000/svg" xmlns:xlink="http://www.w3.org/1999/xlink" width="178" zoomAndPan="magnify" viewBox="0 0 133.5 36.000001" height="48" preserveAspectRatio="xMidYMid meet" version="1.0"><defs><g/><clipPath id="5fc367b124"><path d="M 5.0625 4 L 32.792969 4 L 32.792969 31 L 5.0625 31 Z M 5.0625 4 " clip-rule="nonzero"/></clipPath><clipPath id="cc78b5f43e"><path d="M 5.0625 3.503906 L 32.792969 3.503906 L 32.792969 31.234375 L 5.0625 31.234375 Z M 5.0625 3.503906 " clip-rule="nonzero"/></clipPath></defs><g clip-path="url(#5fc367b124)"><path fill="#ffffff" d="M 31.96875 15.386719 L 24.335938 15.386719 L 29.726562 9.992188 C 29.300781 9.394531 28.832031 8.835938 28.316406 8.320312 C 27.800781 7.804688 27.242188 7.332031 26.648438 6.910156 L 21.25 12.300781 L 21.25 4.671875 C 20.542969 4.558594 19.820312 4.492188 19.078125 4.492188 L 19.066406 4.492188 C 18.324219 4.492188 17.597656 4.558594 16.890625 4.671875 L 16.890625 12.304688 L 11.496094 6.910156 C 10.898438 7.332031 10.339844 7.804688 9.824219 8.320312 C 9.308594 8.835938 8.835938 9.398438 8.410156 9.992188 L 13.804688 15.386719 L 6.171875 15.386719 C 6.171875 15.386719 5.992188 16.824219 5.992188 17.5625 L 5.992188 17.570312 C 5.992188 18.3125 6.058594 19.042969 6.171875 19.746094 L 13.808594 19.746094 L 8.414062 25.140625 C 9.261719 26.335938 10.300781 27.375 11.492188 28.226562 L 16.890625 22.832031 L 16.890625 30.464844 C 17.597656 30.578125 18.324219 30.644531 19.0625 30.644531 L 19.082031 30.644531 C 19.820312 30.644531 20.542969 30.578125 21.25 30.464844 L 21.25 22.832031 L 26.648438 28.226562 C 27.242188 27.816406 27.800781 27.339844 28.3125 26.820312 L 28.316406 26.820312 C 28.832031 26.3125 29.304688 25.757812 29.730469 25.152344 L 24.335938 19.757812 L 31.96875 19.757812 C 32.082031 19.054688 32.148438 18.335938 32.148438 17.601562 L 32.148438 17.566406 C 32.148438 16.828125 32.082031 16.105469 31.96875 15.398438 Z M 31.96875 15.386719 " fill-opacity="1" fill-rule="nonzero"/></g><path fill="#ffffff" d="M 21.835938 17.570312 C 21.835938 18.394531 21.683594 19.183594 21.410156 19.910156 C 20.683594 20.183594 19.894531 20.335938 19.074219 20.335938 L 19.066406 20.335938 C 18.242188 20.335938 17.457031 20.183594 16.730469 19.910156 C 16.457031 19.183594 16.304688 18.394531 16.304688 17.570312 L 16.304688 17.5625 C 16.304688 16.742188 16.453125 15.953125 16.730469 15.226562 C 17.457031 14.953125 18.242188 14.800781 19.066406 14.800781 L 19.074219 14.800781 C 19.894531 14.800781 20.683594 14.953125 21.410156 15.226562 C 21.683594 15.953125 21.835938 16.742188 21.835938 17.566406 Z M 21.835938 17.570312 " fill-opacity="1" fill-rule="nonzero"/><g clip-path="url(#cc78b5f43e)"><path fill="#ffffff" d="M 19.082031 31.515625 C 18.316406 31.515625 17.539062 31.453125 16.753906 31.328125 C 16.332031 31.257812 16.019531 30.894531 16.019531 30.464844 L 16.019531 24.9375 L 12.113281 28.84375 C 11.808594 29.144531 11.335938 29.183594 10.988281 28.9375 C 9.710938 28.027344 8.605469 26.921875 7.703125 25.648438 C 7.457031 25.300781 7.496094 24.828125 7.796875 24.527344 L 11.703125 20.617188 L 6.171875 20.617188 C 5.746094 20.617188 5.378906 20.308594 5.3125 19.882812 C 5.1875 19.09375 5.121094 18.316406 5.121094 17.574219 C 5.121094 16.777344 5.300781 15.339844 5.308594 15.28125 C 5.363281 14.84375 5.734375 14.515625 6.171875 14.515625 L 11.699219 14.515625 L 7.796875 10.609375 C 7.496094 10.308594 7.453125 9.832031 7.699219 9.488281 C 8.15625 8.851562 8.660156 8.25 9.207031 7.703125 C 9.765625 7.148438 10.367188 6.640625 10.996094 6.199219 C 11.339844 5.953125 11.8125 5.992188 12.113281 6.292969 L 16.019531 10.199219 L 16.019531 4.667969 C 16.019531 4.242188 16.332031 3.875 16.753906 3.808594 C 18.375 3.550781 19.785156 3.554688 21.386719 3.808594 C 21.808594 3.878906 22.121094 4.242188 22.121094 4.667969 L 22.121094 10.199219 L 26.03125 6.292969 C 26.332031 5.988281 26.808594 5.949219 27.15625 6.199219 C 27.796875 6.65625 28.390625 7.164062 28.933594 7.707031 C 29.46875 8.242188 29.976562 8.839844 30.4375 9.484375 C 30.683594 9.832031 30.644531 10.308594 30.34375 10.609375 L 26.4375 14.515625 L 31.96875 14.515625 C 32.425781 14.515625 32.796875 14.863281 32.835938 15.308594 C 32.957031 16.078125 33.019531 16.835938 33.019531 17.566406 C 33.019531 18.351562 32.957031 19.105469 32.828125 19.898438 C 32.761719 20.320312 32.398438 20.632812 31.96875 20.632812 L 26.441406 20.632812 L 30.347656 24.535156 C 30.644531 24.835938 30.6875 25.308594 30.441406 25.65625 C 29.988281 26.300781 29.480469 26.902344 28.929688 27.441406 C 28.910156 27.460938 28.894531 27.472656 28.875 27.488281 C 28.328125 28.042969 27.742188 28.53125 27.136719 28.949219 C 26.792969 29.183594 26.328125 29.140625 26.027344 28.84375 L 22.121094 24.9375 L 22.121094 30.464844 C 22.121094 30.894531 21.808594 31.257812 21.386719 31.328125 C 20.601562 31.453125 19.828125 31.515625 19.082031 31.515625 Z M 17.761719 29.703125 C 18.660156 29.796875 19.503906 29.792969 20.378906 29.703125 L 20.378906 22.832031 C 20.378906 22.480469 20.589844 22.164062 20.914062 22.027344 C 21.242188 21.894531 21.617188 21.96875 21.867188 22.21875 L 26.730469 27.082031 C 27.058594 26.816406 27.382812 26.527344 27.691406 26.210938 C 27.714844 26.1875 27.738281 26.167969 27.761719 26.144531 C 28.046875 25.859375 28.320312 25.554688 28.578125 25.234375 L 23.71875 20.375 C 23.46875 20.125 23.394531 19.753906 23.53125 19.425781 C 23.664062 19.101562 23.984375 18.890625 24.335938 18.890625 L 31.207031 18.890625 C 31.253906 18.453125 31.277344 18.027344 31.277344 17.601562 C 31.277344 17.15625 31.253906 16.710938 31.203125 16.261719 L 24.335938 16.261719 C 23.980469 16.261719 23.664062 16.050781 23.53125 15.722656 C 23.394531 15.398438 23.46875 15.023438 23.71875 14.773438 L 28.574219 9.914062 C 28.296875 9.566406 28.003906 9.242188 27.699219 8.941406 C 27.394531 8.632812 27.070312 8.339844 26.726562 8.0625 L 21.867188 12.917969 C 21.617188 13.167969 21.242188 13.242188 20.914062 13.105469 C 20.589844 12.972656 20.378906 12.65625 20.378906 12.300781 L 20.378906 5.433594 C 19.480469 5.335938 18.648438 5.339844 17.761719 5.433594 L 17.761719 12.304688 C 17.761719 12.65625 17.550781 12.976562 17.222656 13.109375 C 16.898438 13.242188 16.523438 13.171875 16.273438 12.921875 L 11.414062 8.0625 C 11.078125 8.332031 10.753906 8.625 10.441406 8.9375 C 10.132812 9.246094 9.839844 9.570312 9.566406 9.914062 L 14.421875 14.773438 C 14.671875 15.023438 14.746094 15.398438 14.609375 15.722656 C 14.476562 16.046875 14.15625 16.261719 13.804688 16.261719 L 6.953125 16.261719 C 6.910156 16.710938 6.867188 17.234375 6.867188 17.5625 C 6.867188 17.988281 6.890625 18.429688 6.9375 18.875 L 13.808594 18.875 C 14.160156 18.875 14.476562 19.085938 14.613281 19.414062 C 14.746094 19.738281 14.671875 20.113281 14.421875 20.363281 L 9.566406 25.222656 C 10.113281 25.902344 10.730469 26.523438 11.414062 27.074219 L 16.273438 22.21875 C 16.523438 21.96875 16.898438 21.894531 17.226562 22.027344 C 17.550781 22.164062 17.761719 22.480469 17.761719 22.832031 Z M 17.761719 29.703125 " fill-opacity="1" fill-rule="nonzero"/></g><path fill="#ffffff" d="M 19.074219 21.054688 C 18.207031 21.054688 17.359375 20.902344 16.550781 20.597656 C 16.316406 20.507812 16.128906 20.324219 16.042969 20.089844 C 15.738281 19.28125 15.582031 18.433594 15.582031 17.570312 C 15.582031 16.699219 15.738281 15.855469 16.042969 15.046875 C 16.128906 14.8125 16.316406 14.628906 16.550781 14.539062 C 18.175781 13.929688 19.996094 13.933594 21.59375 14.542969 C 21.828125 14.628906 22.011719 14.8125 22.101562 15.050781 C 22.402344 15.855469 22.558594 16.703125 22.558594 17.566406 L 22.558594 17.570312 C 22.558594 18.429688 22.402344 19.277344 22.101562 20.085938 C 22.011719 20.324219 21.828125 20.507812 21.589844 20.597656 C 20.789062 20.902344 19.941406 21.054688 19.074219 21.054688 Z M 21.285156 19.78125 L 21.296875 19.78125 Z M 17.546875 19.09375 C 18.546875 19.386719 19.621094 19.382812 20.597656 19.09375 C 20.742188 18.597656 20.816406 18.089844 20.816406 17.570312 L 20.816406 17.566406 C 20.816406 17.046875 20.742188 16.535156 20.597656 16.042969 C 19.609375 15.753906 18.527344 15.753906 17.542969 16.042969 C 17.402344 16.535156 17.324219 17.046875 17.324219 17.5625 C 17.328125 18.085938 17.402344 18.597656 17.546875 19.09375 Z M 17.546875 19.09375 " fill-opacity="1" fill-rule="nonzero"/><g fill="#ffffff" fill-opacity="1"><g transform="translate(43.886116, 25.905407)"><g><path d="M 3.953125 -1.984375 L 14.5 -1.984375 L 14.5 0 L 1.09375 0 L 1.09375 -1.828125 L 11.1875 -16.421875 L 1.25 -16.421875 L 1.25 -18.421875 L 14.09375 -18.421875 L 14.09375 -16.640625 Z M 3.953125 -1.984375 "/></g></g><g transform="translate(59.393941, 25.905407)"><g><path d="M 10.21875 0 C 10.082031 -0.269531 9.972656 -0.75 9.890625 -1.4375 C 8.804688 -0.3125 7.507812 0.25 6 0.25 C 4.644531 0.25 3.535156 -0.128906 2.671875 -0.890625 C 1.804688 -1.648438 1.375 -2.617188 1.375 -3.796875 C 1.375 -5.222656 1.914062 -6.328125 3 -7.109375 C 4.082031 -7.898438 5.609375 -8.296875 7.578125 -8.296875 L 9.859375 -8.296875 L 9.859375 -9.375 C 9.859375 -10.1875 9.613281 -10.835938 9.125 -11.328125 C 8.632812 -11.816406 7.910156 -12.0625 6.953125 -12.0625 C 6.117188 -12.0625 5.421875 -11.847656 4.859375 -11.421875 C 4.296875 -11.003906 4.015625 -10.492188 4.015625 -9.890625 L 1.65625 -9.890625 C 1.65625 -10.578125 1.894531 -11.238281 2.375 -11.875 C 2.863281 -12.507812 3.523438 -13.007812 4.359375 -13.375 C 5.191406 -13.75 6.101562 -13.9375 7.09375 -13.9375 C 8.675781 -13.9375 9.910156 -13.539062 10.796875 -12.75 C 11.691406 -11.96875 12.15625 -10.882812 12.1875 -9.5 L 12.1875 -3.203125 C 12.1875 -1.941406 12.347656 -0.941406 12.671875 -0.203125 L 12.671875 0 Z M 6.34375 -1.78125 C 7.070312 -1.78125 7.765625 -1.96875 8.421875 -2.34375 C 9.078125 -2.726562 9.554688 -3.222656 9.859375 -3.828125 L 9.859375 -6.640625 L 8.015625 -6.640625 C 5.148438 -6.640625 3.71875 -5.800781 3.71875 -4.125 C 3.71875 -3.382812 3.960938 -2.804688 4.453125 -2.390625 C 4.941406 -1.984375 5.570312 -1.78125 6.34375 -1.78125 Z M 6.34375 -1.78125 "/></g></g><g transform="translate(73.485065, 25.905407)"><g><path d="M 13.328125 -6.6875 C 13.328125 -4.601562 12.847656 -2.925781 11.890625 -1.65625 C 10.941406 -0.382812 9.65625 0.25 8.03125 0.25 C 6.375 0.25 5.066406 -0.273438 4.109375 -1.328125 L 4.109375 5.265625 L 1.765625 5.265625 L 1.765625 -13.6875 L 3.90625 -13.6875 L 4.015625 -12.171875 C 4.972656 -13.347656 6.300781 -13.9375 8 -13.9375 C 9.644531 -13.9375 10.941406 -13.316406 11.890625 -12.078125 C 12.847656 -10.835938 13.328125 -9.113281 13.328125 -6.90625 Z M 11 -6.953125 C 11 -8.492188 10.664062 -9.710938 10 -10.609375 C 9.34375 -11.503906 8.441406 -11.953125 7.296875 -11.953125 C 5.878906 -11.953125 4.816406 -11.320312 4.109375 -10.0625 L 4.109375 -3.53125 C 4.804688 -2.28125 5.878906 -1.65625 7.328125 -1.65625 C 8.441406 -1.65625 9.332031 -2.097656 10 -2.984375 C 10.664062 -3.878906 11 -5.203125 11 -6.953125 Z M 11 -6.953125 "/></g></g><g transform="translate(88.018908, 25.905407)"><g><path d="M 4.3125 0 L 1.96875 0 L 1.96875 -13.6875 L 4.3125 -13.6875 Z M 1.78125 -17.3125 C 1.78125 -17.695312 1.894531 -18.019531 2.125 -18.28125 C 2.363281 -18.539062 2.707031 -18.671875 3.15625 -18.671875 C 3.613281 -18.671875 3.957031 -18.539062 4.1875 -18.28125 C 4.425781 -18.019531 4.546875 -17.695312 4.546875 -17.3125 C 4.546875 -16.9375 4.425781 -16.617188 4.1875 -16.359375 C 3.957031 -16.109375 3.613281 -15.984375 3.15625 -15.984375 C 2.707031 -15.984375 2.363281 -16.109375 2.125 -16.359375 C 1.894531 -16.617188 1.78125 -16.9375 1.78125 -17.3125 Z M 1.78125 -17.3125 "/></g></g><g transform="translate(94.305522, 25.905407)"><g><path d="M 7.453125 0.25 C 5.597656 0.25 4.085938 -0.359375 2.921875 -1.578125 C 1.753906 -2.796875 1.171875 -4.425781 1.171875 -6.46875 L 1.171875 -6.890625 C 1.171875 -8.253906 1.429688 -9.46875 1.953125 -10.53125 C 2.472656 -11.59375 3.195312 -12.425781 4.125 -13.03125 C 5.0625 -13.632812 6.070312 -13.9375 7.15625 -13.9375 C 8.9375 -13.9375 10.316406 -13.347656 11.296875 -12.171875 C 12.285156 -11.003906 12.78125 -9.328125 12.78125 -7.140625 L 12.78125 -6.171875 L 3.515625 -6.171875 C 3.546875 -4.828125 3.9375 -3.738281 4.6875 -2.90625 C 5.445312 -2.070312 6.410156 -1.65625 7.578125 -1.65625 C 8.398438 -1.65625 9.097656 -1.820312 9.671875 -2.15625 C 10.242188 -2.5 10.75 -2.945312 11.1875 -3.5 L 12.609375 -2.390625 C 11.460938 -0.628906 9.742188 0.25 7.453125 0.25 Z M 7.15625 -12.015625 C 6.21875 -12.015625 5.425781 -11.671875 4.78125 -10.984375 C 4.132812 -10.296875 3.738281 -9.332031 3.59375 -8.09375 L 10.453125 -8.09375 L 10.453125 -8.265625 C 10.378906 -9.460938 10.054688 -10.382812 9.484375 -11.03125 C 8.910156 -11.6875 8.132812 -12.015625 7.15625 -12.015625 Z M 7.15625 -12.015625 "/></g></g><g transform="translate(108.029821, 25.905407)"><g><path d="M 8.390625 -11.59375 C 8.035156 -11.644531 7.648438 -11.671875 7.234375 -11.671875 C 5.703125 -11.671875 4.660156 -11.019531 4.109375 -9.71875 L 4.109375 0 L 1.765625 0 L 1.765625 -13.6875 L 4.046875 -13.6875 L 4.078125 -12.109375 C 4.847656 -13.328125 5.9375 -13.9375 7.34375 -13.9375 C 7.800781 -13.9375 8.148438 -13.878906 8.390625 -13.765625 Z M 8.390625 -11.59375 "/></g></g></g></svg>