<svg xmlns="http://www.w3.org/2000/svg" xmlns:xlink="http://www.w3.org/1999/xlink" width="178" zoomAndPan="magnify" viewBox="0 0 133.5 36.000001" height="48" preserveAspectRatio="xMidYMid meet" version="1.0"><defs><g/><clipPath id="d36d957e07"><path d="M 7.375 5.1875 L 41.671875 5.1875 L 41.671875 27.808594 L 7.375 27.808594 Z M 7.375 5.1875 " clip-rule="nonzero"/></clipPath></defs><g clip-path="url(#d36d957e07)"><path fill="#000000" d="M 24.832031 9.929688 C 22.121094 6.496094 19.855469 5.1875 17.144531 5.1875 C 11.617188 5.1875 7.382812 12.347656 7.382812 19.925781 C 7.382812 24.667969 9.6875 27.660156 13.546875 27.660156 C 16.328125 27.660156 18.324219 26.355469 21.878906 20.175781 C 21.878906 20.175781 23.359375 17.570312 24.378906 15.777344 C 24.734375 16.351562 25.109375 16.96875 25.503906 17.632812 L 27.171875 20.421875 C 30.417969 25.828125 32.226562 27.660156 35.5 27.660156 C 39.261719 27.660156 41.355469 24.628906 41.355469 19.785156 C 41.355469 11.851562 37.023438 5.1875 31.765625 5.1875 C 28.980469 5.1875 26.800781 7.273438 24.832031 9.929688 Z M 30.039062 17.933594 L 28.046875 14.628906 C 27.507812 13.753906 26.992188 12.953125 26.492188 12.21875 C 28.289062 9.460938 29.769531 8.085938 31.53125 8.085938 C 35.191406 8.085938 38.117188 13.449219 38.117188 20.035156 C 38.117188 22.546875 37.289062 24.003906 35.578125 24.003906 C 33.9375 24.003906 33.15625 22.921875 30.039062 17.933594 Z M 11.058594 19.988281 C 11.058594 14.484375 13.8125 8.859375 17.097656 8.859375 C 18.878906 8.859375 20.363281 9.882812 22.640625 13.128906 C 20.480469 16.429688 19.167969 18.5 19.167969 18.5 C 16.289062 22.996094 15.292969 24.003906 13.6875 24.003906 C 12.039062 24.003906 11.058594 22.558594 11.058594 19.988281 Z M 11.058594 19.988281 " fill-opacity="1" fill-rule="nonzero"/></g><g fill="#000000" fill-opacity="1"><g transform="translate(47.391798, 23.356984)"><g><path d="M 4.875 -17.03125 L 10.4375 -3.140625 L 16.015625 -17.03125 L 18.921875 -17.03125 L 18.921875 0 L 16.671875 0 L 16.671875 -6.625 L 16.890625 -13.796875 L 11.296875 0 L 9.578125 0 L 4 -13.75 L 4.21875 -6.625 L 4.21875 0 L 1.984375 0 L 1.984375 -17.03125 Z M 4.875 -17.03125 "/></g></g></g><g fill="#000000" fill-opacity="1"><g transform="translate(68.306211, 23.356984)"><g><path d="M 6.890625 0.234375 C 5.171875 0.234375 3.773438 -0.328125 2.703125 -1.453125 C 1.628906 -2.578125 1.09375 -4.085938 1.09375 -5.984375 L 1.09375 -6.375 C 1.09375 -7.625 1.332031 -8.742188 1.8125 -9.734375 C 2.289062 -10.722656 2.957031 -11.492188 3.8125 -12.046875 C 4.675781 -12.609375 5.613281 -12.890625 6.625 -12.890625 C 8.269531 -12.890625 9.546875 -12.347656 10.453125 -11.265625 C 11.367188 -10.179688 11.828125 -8.628906 11.828125 -6.609375 L 11.828125 -5.703125 L 3.25 -5.703125 C 3.28125 -4.460938 3.644531 -3.457031 4.34375 -2.6875 C 5.039062 -1.914062 5.925781 -1.53125 7 -1.53125 C 7.769531 -1.53125 8.421875 -1.6875 8.953125 -2 C 9.484375 -2.3125 9.945312 -2.722656 10.34375 -3.234375 L 11.65625 -2.203125 C 10.59375 -0.578125 9.003906 0.234375 6.890625 0.234375 Z M 6.625 -11.109375 C 5.75 -11.109375 5.015625 -10.789062 4.421875 -10.15625 C 3.828125 -9.519531 3.460938 -8.628906 3.328125 -7.484375 L 9.65625 -7.484375 L 9.65625 -7.65625 C 9.59375 -8.75 9.296875 -9.597656 8.765625 -10.203125 C 8.242188 -10.804688 7.53125 -11.109375 6.625 -11.109375 Z M 6.625 -11.109375 "/></g></g></g><g fill="#000000" fill-opacity="1"><g transform="translate(80.997569, 23.356984)"><g><path d="M 4.578125 -15.71875 L 4.578125 -12.65625 L 6.9375 -12.65625 L 6.9375 -10.984375 L 4.578125 -10.984375 L 4.578125 -3.140625 C 4.578125 -2.628906 4.679688 -2.242188 4.890625 -1.984375 C 5.097656 -1.734375 5.457031 -1.609375 5.96875 -1.609375 C 6.21875 -1.609375 6.5625 -1.65625 7 -1.75 L 7 0 C 6.425781 0.15625 5.867188 0.234375 5.328125 0.234375 C 4.367188 0.234375 3.640625 -0.0546875 3.140625 -0.640625 C 2.648438 -1.222656 2.40625 -2.054688 2.40625 -3.140625 L 2.40625 -10.984375 L 0.109375 -10.984375 L 0.109375 -12.65625 L 2.40625 -12.65625 L 2.40625 -15.71875 Z M 4.578125 -15.71875 "/></g></g></g><g fill="#000000" fill-opacity="1"><g transform="translate(88.822933, 23.356984)"><g><path d="M 9.453125 0 C 9.328125 -0.25 9.222656 -0.691406 9.140625 -1.328125 C 8.140625 -0.285156 6.941406 0.234375 5.546875 0.234375 C 4.296875 0.234375 3.269531 -0.117188 2.46875 -0.828125 C 1.675781 -1.535156 1.28125 -2.429688 1.28125 -3.515625 C 1.28125 -4.828125 1.78125 -5.847656 2.78125 -6.578125 C 3.78125 -7.304688 5.1875 -7.671875 7 -7.671875 L 9.109375 -7.671875 L 9.109375 -8.671875 C 9.109375 -9.421875 8.878906 -10.019531 8.421875 -10.46875 C 7.972656 -10.914062 7.3125 -11.140625 6.4375 -11.140625 C 5.664062 -11.140625 5.015625 -10.945312 4.484375 -10.5625 C 3.960938 -10.175781 3.703125 -9.703125 3.703125 -9.140625 L 1.53125 -9.140625 C 1.53125 -9.773438 1.753906 -10.382812 2.203125 -10.96875 C 2.648438 -11.5625 3.257812 -12.03125 4.03125 -12.375 C 4.800781 -12.71875 5.644531 -12.890625 6.5625 -12.890625 C 8.019531 -12.890625 9.160156 -12.523438 9.984375 -11.796875 C 10.816406 -11.066406 11.25 -10.0625 11.28125 -8.78125 L 11.28125 -2.953125 C 11.28125 -1.796875 11.425781 -0.875 11.71875 -0.1875 L 11.71875 0 Z M 5.859375 -1.65625 C 6.535156 -1.65625 7.175781 -1.828125 7.78125 -2.171875 C 8.394531 -2.523438 8.835938 -2.984375 9.109375 -3.546875 L 9.109375 -6.140625 L 7.421875 -6.140625 C 4.765625 -6.140625 3.4375 -5.363281 3.4375 -3.8125 C 3.4375 -3.132812 3.660156 -2.601562 4.109375 -2.21875 C 4.566406 -1.84375 5.148438 -1.65625 5.859375 -1.65625 Z M 5.859375 -1.65625 "/></g></g></g><g fill="#000000" fill-opacity="1"><g transform="translate(101.853502, 23.356984)"><g/></g></g><g fill="#000000" fill-opacity="1"><g transform="translate(107.783937, 23.356984)"><g><path d="M 7.84375 -9.140625 L 12.578125 -9.140625 L 12.578125 -7.09375 L 7.84375 -7.09375 L 7.84375 -1.703125 L 5.65625 -1.703125 L 5.65625 -7.09375 L 0.90625 -7.09375 L 0.90625 -9.140625 L 5.65625 -9.140625 L 5.65625 -14.109375 L 7.84375 -14.109375 Z M 7.84375 -9.140625 "/></g></g></g></svg>