<svg xmlns="http://www.w3.org/2000/svg" xmlns:xlink="http://www.w3.org/1999/xlink" width="178" zoomAndPan="magnify" viewBox="0 0 133.5 36.000001" height="48" preserveAspectRatio="xMidYMid meet" version="1.0"><defs><g/><clipPath id="bee8593bb5"><path d="M 5.0625 3.503906 L 32.792969 3.503906 L 32.792969 31.234375 L 5.0625 31.234375 Z M 5.0625 3.503906 " clip-rule="nonzero"/></clipPath></defs><g clip-path="url(#bee8593bb5)"><path fill="#000000" d="M 18.929688 3.503906 C 11.269531 3.503906 5.0625 9.710938 5.0625 17.367188 C 5.0625 25.023438 11.269531 31.234375 18.929688 31.234375 C 26.585938 31.234375 32.792969 25.023438 32.792969 17.367188 C 32.792969 9.710938 26.585938 3.503906 18.929688 3.503906 Z M 25.507812 24.203125 L 21.539062 24.203125 L 18.9375 14.855469 L 16.34375 24.203125 L 12.375 24.203125 L 9.335938 10.53125 L 13.074219 10.53125 L 14.527344 18.242188 L 14.890625 18.257812 L 17.023438 10.53125 L 20.847656 10.53125 L 22.984375 18.246094 L 23.347656 18.234375 L 24.804688 10.53125 L 28.519531 10.53125 Z M 25.507812 24.203125 " fill-opacity="1" fill-rule="nonzero"/></g><g fill="#000000" fill-opacity="1"><g transform="translate(38.252531, 24.434221)"><g><path d="M 5.65625 -5.375 L 5.984375 -3.125 L 6.453125 -5.140625 L 9.828125 -17.03125 L 11.71875 -17.03125 L 15 -5.140625 L 15.46875 -3.09375 L 15.84375 -5.375 L 18.484375 -17.03125 L 20.734375 -17.03125 L 16.609375 0 L 14.5625 0 L 11.046875 -12.40625 L 10.78125 -13.703125 L 10.515625 -12.40625 L 6.875 0 L 4.828125 0 L 0.71875 -17.03125 L 2.953125 -17.03125 Z M 5.65625 -5.375 "/></g></g></g><g fill="#000000" fill-opacity="1"><g transform="translate(59.506166, 24.434221)"><g><path d="M 6.890625 0.234375 C 5.171875 0.234375 3.773438 -0.328125 2.703125 -1.453125 C 1.628906 -2.578125 1.09375 -4.085938 1.09375 -5.984375 L 1.09375 -6.375 C 1.09375 -7.625 1.332031 -8.742188 1.8125 -9.734375 C 2.289062 -10.722656 2.957031 -11.492188 3.8125 -12.046875 C 4.675781 -12.609375 5.613281 -12.890625 6.625 -12.890625 C 8.269531 -12.890625 9.546875 -12.347656 10.453125 -11.265625 C 11.367188 -10.179688 11.828125 -8.628906 11.828125 -6.609375 L 11.828125 -5.703125 L 3.25 -5.703125 C 3.28125 -4.460938 3.644531 -3.457031 4.34375 -2.6875 C 5.039062 -1.914062 5.925781 -1.53125 7 -1.53125 C 7.769531 -1.53125 8.421875 -1.6875 8.953125 -2 C 9.484375 -2.3125 9.945312 -2.722656 10.34375 -3.234375 L 11.65625 -2.203125 C 10.59375 -0.578125 9.003906 0.234375 6.890625 0.234375 Z M 6.625 -11.109375 C 5.75 -11.109375 5.015625 -10.789062 4.421875 -10.15625 C 3.828125 -9.519531 3.460938 -8.628906 3.328125 -7.484375 L 9.65625 -7.484375 L 9.65625 -7.65625 C 9.59375 -8.75 9.296875 -9.597656 8.765625 -10.203125 C 8.242188 -10.804688 7.53125 -11.109375 6.625 -11.109375 Z M 6.625 -11.109375 "/></g></g></g><g fill="#000000" fill-opacity="1"><g transform="translate(72.197523, 24.434221)"><g><path d="M 12.34375 -6.1875 C 12.34375 -4.25 11.898438 -2.691406 11.015625 -1.515625 C 10.128906 -0.347656 8.9375 0.234375 7.4375 0.234375 C 5.84375 0.234375 4.609375 -0.332031 3.734375 -1.46875 L 3.625 0 L 1.640625 0 L 1.640625 -17.96875 L 3.796875 -17.96875 L 3.796875 -11.265625 C 4.671875 -12.347656 5.875 -12.890625 7.40625 -12.890625 C 8.945312 -12.890625 10.15625 -12.304688 11.03125 -11.140625 C 11.90625 -9.984375 12.34375 -8.394531 12.34375 -6.375 Z M 10.1875 -6.4375 C 10.1875 -7.90625 9.898438 -9.039062 9.328125 -9.84375 C 8.765625 -10.644531 7.945312 -11.046875 6.875 -11.046875 C 5.445312 -11.046875 4.421875 -10.382812 3.796875 -9.0625 L 3.796875 -3.59375 C 4.460938 -2.269531 5.5 -1.609375 6.90625 -1.609375 C 7.9375 -1.609375 8.738281 -2.007812 9.3125 -2.8125 C 9.894531 -3.613281 10.1875 -4.820312 10.1875 -6.4375 Z M 10.1875 -6.4375 "/></g></g></g><g fill="#000000" fill-opacity="1"><g transform="translate(85.637496, 24.434221)"><g><path d="M 2.703125 0 L 2.703125 -10.984375 L 0.703125 -10.984375 L 0.703125 -12.65625 L 2.703125 -12.65625 L 2.703125 -13.953125 C 2.703125 -15.304688 3.0625 -16.351562 3.78125 -17.09375 C 4.507812 -17.832031 5.535156 -18.203125 6.859375 -18.203125 C 7.359375 -18.203125 7.851562 -18.140625 8.34375 -18.015625 L 8.234375 -16.25 C 7.867188 -16.320312 7.476562 -16.359375 7.0625 -16.359375 C 6.363281 -16.359375 5.820312 -16.15625 5.4375 -15.75 C 5.050781 -15.34375 4.859375 -14.753906 4.859375 -13.984375 L 4.859375 -12.65625 L 7.5625 -12.65625 L 7.5625 -10.984375 L 4.859375 -10.984375 L 4.859375 0 Z M 2.703125 0 "/></g></g></g><g fill="#000000" fill-opacity="1"><g transform="translate(93.954139, 24.434221)"><g><path d="M 3.984375 0 L 1.828125 0 L 1.828125 -17.96875 L 3.984375 -17.96875 Z M 3.984375 0 "/></g></g></g><g fill="#000000" fill-opacity="1"><g transform="translate(99.767602, 24.434221)"><g><path d="M 1.0625 -6.4375 C 1.0625 -7.675781 1.304688 -8.789062 1.796875 -9.78125 C 2.285156 -10.78125 2.960938 -11.546875 3.828125 -12.078125 C 4.703125 -12.617188 5.695312 -12.890625 6.8125 -12.890625 C 8.53125 -12.890625 9.921875 -12.289062 10.984375 -11.09375 C 12.046875 -9.90625 12.578125 -8.320312 12.578125 -6.34375 L 12.578125 -6.1875 C 12.578125 -4.957031 12.34375 -3.851562 11.875 -2.875 C 11.40625 -1.894531 10.726562 -1.128906 9.84375 -0.578125 C 8.96875 -0.0351562 7.960938 0.234375 6.828125 0.234375 C 5.109375 0.234375 3.71875 -0.359375 2.65625 -1.546875 C 1.59375 -2.742188 1.0625 -4.328125 1.0625 -6.296875 Z M 3.234375 -6.1875 C 3.234375 -4.78125 3.554688 -3.648438 4.203125 -2.796875 C 4.859375 -1.953125 5.734375 -1.53125 6.828125 -1.53125 C 7.929688 -1.53125 8.804688 -1.957031 9.453125 -2.8125 C 10.097656 -3.675781 10.421875 -4.882812 10.421875 -6.4375 C 10.421875 -7.832031 10.085938 -8.957031 9.421875 -9.8125 C 8.765625 -10.675781 7.894531 -11.109375 6.8125 -11.109375 C 5.738281 -11.109375 4.875 -10.679688 4.21875 -9.828125 C 3.5625 -8.984375 3.234375 -7.769531 3.234375 -6.1875 Z M 3.234375 -6.1875 "/></g></g></g><g fill="#000000" fill-opacity="1"><g transform="translate(113.429814, 24.434221)"><g><path d="M 12.84375 -2.984375 L 15.28125 -12.65625 L 17.4375 -12.65625 L 13.75 0 L 12 0 L 8.921875 -9.59375 L 5.9375 0 L 4.171875 0 L 0.5 -12.65625 L 2.65625 -12.65625 L 5.140625 -3.1875 L 8.09375 -12.65625 L 9.84375 -12.65625 Z M 12.84375 -2.984375 "/></g></g></g></svg>